# xmcd CD database file
#
# Track frame offsets:
#	150
#	13971
#	28540
#	45048
#	59102
#	73953
#	91872
#	106295
#	122618
#	135718
#	145713
#
# Disc length: 2302 seconds
#
# Revision: 0
# Processed by: cddbd v1.5.2PL0 Copyright (c) Steve Scherf et al.
# Submitted via: CDex 1.51
#
DISCID=9608fc0b
DTITLE=The Coggs - Blackjack and Cigarettes
DYEAR=1900
DGENRE=Blues
TTITLE0=Doctor Doctor
TTITLE1=Ride My Train
TTITLE2=Blackjack and Cigarrettes
TTITLE3=Who Cares
TTITLE4=Toothache
TTITLE5=Broken Phones
TTITLE6=Still Love You
TTITLE7=Healin' Hands
TTITLE8=Devil's Knockin'
TTITLE9=It's Alright
TTITLE10=Let Me Out
EXTD=
EXTT0=
EXTT1=
EXTT2=
EXTT3=
EXTT4=
EXTT5=
EXTT6=
EXTT7=
EXTT8=
EXTT9=
EXTT10=
PLAYORDER=
